<?xml version="1.0" encoding="utf-8"?>
<!-- Generator: Adobe Illustrator 21.0.0, SVG Export Plug-In . SVG Version: 6.00 Build 0)  -->
<svg version="1.1" id="Layer_1" xmlns="http://www.w3.org/2000/svg" xmlns:xlink="http://www.w3.org/1999/xlink" x="0px" y="0px"
	 viewBox="0 0 500 500" style="enable-background:new 0 0 500 500;" xml:space="preserve">
<style type="text/css">
	.st0{fill:#B28F64;}
</style>
<g>
	<path class="st0" d="M48.7,227.8c3.3-0.3,6.2-0.5,8.6-0.5c4,0,7.1,0.4,9.2,1.4c2.1,0.9,3.9,2.2,5.2,3.9c0.9,1.1,1.6,2.7,2.2,4.6
		c0.5,1.9,0.8,4.1,0.8,6.4c0,4.5-0.8,8.2-2.4,11.3c-1.6,3.1-4,5.4-7.1,7c-2.2,1.1-5,1.6-8.3,1.6c-2.2,0-4.8-0.2-8-0.6
		c-0.2-4.7-0.2-10.5-0.2-17.5C48.5,238.9,48.5,233,48.7,227.8 M49.7,266.3c3.2,0.1,5,0.2,5.4,0.2c7.9,0,14.3-2.3,19-6.8
		c4.7-4.5,7.1-10.3,7.1-17.3c0-3.8-0.8-7.1-2.2-9.9c-1.5-2.8-3.6-4.9-6.3-6.2c-2.7-1.3-6.2-2-10.7-2l-13.2,0.2
		c-4.6,0-8.9-0.1-12.8-0.4v1.9c3.5,0.8,5.5,1.3,5.8,1.5c0.6,0.3,0.9,0.9,0.9,1.9v1l0.2,13.1c0,2.9,0,7.6-0.2,14.1
		c0,3-0.1,4.7-0.2,5.1c-0.1,0.3-0.2,0.5-0.3,0.6c-0.2,0.2-0.4,0.3-0.8,0.4c-0.4,0.1-2.2,0.5-5.5,1.1v1.8c3.6-0.3,6.3-0.5,8.3-0.5
		C44.7,266.2,46.5,266.2,49.7,266.3"/>
	<path class="st0" d="M100.6,266.6V265c-0.4-0.1-0.8-0.2-1-0.3c-1.8-0.5-2.9-0.9-3.2-1.2c-0.3-0.3-0.5-0.7-0.6-1.2
		c-0.2-0.8-0.3-3.1-0.3-6.7c0-7.8,0.2-13.8,0.5-18l-0.8-0.6c-2.9,1.7-6,3-9.4,3.8v1.7c1.7-0.2,2.7-0.2,3.1-0.2
		c0.6,0,1.1,0.2,1.4,0.7s0.4,1.8,0.4,4v1.2v6.4c0,5.2-0.2,8-0.5,8.6c-0.3,0.6-1.9,1.2-4.5,1.8v1.7c4.5-0.2,7.3-0.4,8.3-0.4
		C95.8,266.3,98,266.4,100.6,266.6"/>
	<path class="st0" d="M93.2,229c0.9,0,1.6-0.3,2.2-0.9c0.6-0.6,0.9-1.4,0.9-2.2c0-0.9-0.3-1.7-0.9-2.3c-0.6-0.6-1.3-0.9-2.2-0.9
		c-0.9,0-1.6,0.3-2.2,0.9c-0.6,0.6-0.9,1.4-0.9,2.3c0,0.8,0.3,1.6,0.9,2.2C91.6,228.7,92.3,229,93.2,229"/>
	<path class="st0" d="M105.5,242.4c0.9,0,1.5,0.4,1.7,1.3c0.2,0.6,0.2,4.3,0.2,11c0,3.3-0.2,5.9-0.4,7.8c-0.1,0.7-0.2,1.1-0.4,1.3
		c-0.3,0.3-1.7,0.7-4,1.2v1.7c3.5-0.2,6.1-0.4,7.8-0.4c1.8,0,4.1,0.1,6.8,0.4V265c-0.5-0.1-0.9-0.2-1.2-0.3c-2-0.5-3.2-1.1-3.5-1.7
		s-0.4-4.5-0.4-11.6c0-2.5,0.3-4.4,0.9-5.7c0.6-1.3,1.5-2.3,2.8-3.1s2.6-1.1,3.9-1.1c1.3,0,2.4,0.4,3.3,1.1c0.9,0.7,1.5,1.7,1.8,3
		c0.2,0.9,0.3,3.5,0.3,7.9c0,4.1-0.1,7.1-0.3,9c-0.1,0.5-0.2,0.9-0.5,1.2c-0.3,0.2-1.6,0.7-3.9,1.4v1.7c3.9-0.2,6.6-0.4,8.2-0.4
		c1.8,0,3.9,0.1,6.3,0.4V265c-0.6-0.1-1-0.3-1.3-0.3c-1.6-0.4-2.6-0.7-2.9-0.9c-0.3-0.3-0.5-0.7-0.6-1.3c-0.2-0.9-0.3-3.8-0.3-8.6
		l0.1-7.3c0-3.1-0.5-5.2-1.4-6.5c-1.5-1.9-3.6-2.8-6.4-2.8c-1.3,0-2.5,0.2-3.6,0.7c-0.9,0.3-1.6,0.7-2.2,1.3l-3.8,3.7
		c0.1-1.8,0.2-3.5,0.5-5.2l-0.8-0.5c-2.9,1.7-6.2,3-9.8,3.8v1.7c0.5-0.1,0.9-0.1,1.2-0.1C104.4,242.4,105.1,242.4,105.5,242.4"/>
	<path class="st0" d="M144.2,229c0.8,0,1.6-0.3,2.2-0.9c0.6-0.6,0.9-1.4,0.9-2.2c0-0.9-0.3-1.7-0.9-2.3c-0.6-0.6-1.4-0.9-2.2-0.9
		c-0.9,0-1.6,0.3-2.2,0.9c-0.6,0.6-0.9,1.4-0.9,2.3c0,0.8,0.3,1.6,0.9,2.2C142.6,228.7,143.3,229,144.2,229"/>
	<path class="st0" d="M151.6,266.6V265c-0.4-0.1-0.8-0.2-1-0.3c-1.8-0.5-2.9-0.9-3.2-1.2s-0.5-0.7-0.7-1.2c-0.2-0.8-0.3-3.1-0.3-6.7
		c0-7.8,0.2-13.8,0.5-18l-0.8-0.6c-2.9,1.7-6.1,3-9.4,3.8v1.7c1.7-0.2,2.7-0.2,3.1-0.2c0.7,0,1.1,0.2,1.4,0.7c0.3,0.5,0.4,1.8,0.4,4
		v1.2l0.1,6.4c0,5.2-0.2,8-0.5,8.6c-0.3,0.6-1.8,1.2-4.5,1.8v1.7c4.5-0.2,7.3-0.4,8.3-0.4C146.8,266.3,149,266.4,151.6,266.6"/>
	<path class="st0" d="M156.5,242.4c1,0,1.5,0.4,1.8,1.3c0.1,0.6,0.2,4.3,0.2,11c0,3.3-0.1,5.9-0.5,7.8c-0.1,0.7-0.2,1.1-0.4,1.3
		c-0.3,0.3-1.7,0.7-4,1.2v1.7c3.5-0.2,6.1-0.4,7.8-0.4c1.8,0,4.1,0.1,6.7,0.4V265c-0.5-0.1-0.9-0.2-1.1-0.3
		c-2.1-0.5-3.2-1.1-3.6-1.7c-0.3-0.6-0.4-4.5-0.4-11.6c0-2.5,0.3-4.4,0.9-5.7c0.6-1.3,1.5-2.3,2.8-3.1s2.6-1.1,3.9-1.1
		c1.3,0,2.3,0.4,3.3,1.1c0.9,0.7,1.5,1.7,1.8,3c0.2,0.9,0.3,3.5,0.3,7.9c0,4.1-0.1,7.1-0.3,9c-0.1,0.5-0.2,0.9-0.5,1.2
		c-0.3,0.2-1.6,0.7-3.9,1.4v1.7c3.9-0.2,6.6-0.4,8.2-0.4c1.8,0,3.9,0.1,6.3,0.4V265c-0.6-0.1-1-0.3-1.3-0.3
		c-1.6-0.4-2.6-0.7-2.9-0.9c-0.3-0.3-0.4-0.7-0.6-1.3c-0.2-0.9-0.3-3.8-0.3-8.6l0.1-7.3c0-3.1-0.5-5.2-1.5-6.5
		c-1.4-1.9-3.6-2.8-6.4-2.8c-1.3,0-2.5,0.2-3.6,0.7c-0.8,0.3-1.6,0.7-2.2,1.3l-3.8,3.7c0.1-1.8,0.2-3.5,0.5-5.2l-0.8-0.5
		c-2.9,1.7-6.2,3-9.8,3.8v1.7c0.5-0.1,0.9-0.1,1.2-0.1C155.4,242.4,156,242.4,156.5,242.4"/>
	<path class="st0" d="M192.5,269.5c0.6-0.9,1.7-2.1,3.3-3.4h7.5h1.3c2.2,0,3.7,0.3,4.6,1c0.8,0.7,1.2,1.6,1.2,2.8c0,2-1,3.7-3,4.8
		c-2,1.2-4.6,1.8-7.7,1.8c-2.7,0-4.9-0.6-6.4-1.7c-1.1-0.8-1.6-1.7-1.6-2.8C191.6,271.2,191.9,270.4,192.5,269.5 M196.1,241.2
		c1.1-1.2,2.4-1.8,4-1.8c1.7,0,3.1,0.7,4.3,2.1c1.1,1.4,1.7,3.5,1.7,6.5c0,2.4-0.5,4.2-1.6,5.4c-1,1.2-2.4,1.8-4,1.8
		c-1.7,0-3.1-0.7-4.3-2.1c-1.2-1.4-1.7-3.6-1.7-6.5C194.5,244.2,195,242.4,196.1,241.2 M197.7,279.2c5.6,0,10.2-1.4,13.7-4.1
		c2.4-1.9,3.7-4.3,3.7-7.1c0-2.1-0.6-3.6-1.8-4.7c-1.2-1-3.3-1.5-6.5-1.5l-5.3,0.1c-3.6,0-5.8-0.2-6.6-0.7c-0.5-0.3-0.8-0.7-0.8-1.2
		c0-0.6,0.8-1.7,2.3-3.1c1.1,0.2,2.2,0.3,3.2,0.3c3.8,0,6.7-1,8.8-2.9c2.1-2,3.2-4.4,3.2-7.3c0-2-0.6-4-1.9-6c1.6,0,3.1,0.1,4.6,0.2
		c0.4-1,0.9-1.9,1.3-2.8l-0.3-0.4c-1.2,0.1-3.1,0.2-5.8,0.2c-0.6,0-1.4,0-2.5,0c-1-0.3-2-0.6-3-0.7s-1.9-0.2-2.8-0.2
		c-3.7,0-6.7,1-8.8,3c-2.2,2-3.2,4.6-3.2,7.6c0,1.9,0.4,3.6,1.3,4.9c0.9,1.4,2.1,2.5,3.8,3.4c-2.2,2-3.8,3.4-4.8,4.2
		c-0.4,0.3-0.6,0.8-0.6,1.4c0,0.9,0.4,1.8,1.1,2.5c0.7,0.7,1.8,1.3,3.2,1.6l-4.8,3.4c-0.9,0.6-1.4,0.9-1.5,1.2
		c-0.3,0.6-0.5,1.3-0.5,2.1c0,1.6,0.9,3.1,2.7,4.5C190.9,278.5,193.8,279.2,197.7,279.2"/>
	<path class="st0" d="M244.2,264.7c3.3,1.8,6.9,2.7,10.9,2.7c3.1,0,6.2-0.5,9.2-1.4c2.9-1,6-2.4,9.2-4.4l-1.3-2.3
		c-3,1.5-5.6,2.6-7.7,3.2c-2.1,0.6-4.3,0.9-6.5,0.9c-5.2,0-9.4-1.7-12.6-5c-3.2-3.4-4.8-7.9-4.8-13.7c0-4.9,1.1-8.9,3.4-12.1
		c2.9-4.1,7.3-6.1,13.1-6.1c2.7,0,5.1,0.4,6.9,1.2c1.9,0.8,3.2,1.8,4.1,3.2c0.8,1.3,1.6,3.7,2.4,7.2h2.5c-0.3-2.8-0.4-5.5-0.4-8.1
		c0-0.9,0-2.2,0.1-4c-5.4-1.8-10.3-2.6-14.6-2.6c-7.1,0-12.9,2.1-17.2,6.3c-4.3,4.2-6.5,9.6-6.5,16.2c0,4.1,0.8,7.7,2.5,11.1
		C238.5,260.3,240.9,262.9,244.2,264.7"/>
	<path class="st0" d="M283.3,242.1c1.5-1.7,3.5-2.6,5.9-2.6s4.5,1.1,6.3,3.3s2.7,5.6,2.7,10.3c0,4.1-0.8,7.1-2.4,9
		c-1.6,1.8-3.6,2.8-6.1,2.8c-1.9,0-3.6-0.6-5-1.9c-1.5-1.3-2.5-3.1-3.1-5.6c-0.4-1.6-0.6-4-0.6-7.2
		C281,246.5,281.8,243.9,283.3,242.1 M289,267.4c4.4,0,8-1.4,10.8-4.3c2.8-2.8,4.2-6.8,4.2-11.7c0-4.5-1.2-8.1-3.7-10.6
		s-5.8-3.8-10.1-3.8c-4.5,0-8.1,1.4-10.8,4.2c-2.7,2.8-4.1,6.6-4.1,11.5c0,4.7,1.2,8.3,3.7,10.8C281.4,266.1,284.7,267.4,289,267.4"
		/>
	<path class="st0" d="M309.7,242.4c1,0,1.6,0.4,1.8,1.3c0.1,0.6,0.2,4.3,0.2,11c0,3.3-0.1,5.9-0.5,7.8c-0.1,0.7-0.2,1.1-0.4,1.3
		c-0.3,0.3-1.6,0.7-4,1.2v1.7c3.5-0.2,6.1-0.4,7.8-0.4c1.8,0,4.1,0.1,6.7,0.4V265c-0.5-0.1-0.9-0.2-1.1-0.3
		c-2.1-0.5-3.2-1.1-3.5-1.7s-0.5-4.5-0.5-11.6c0-2.5,0.3-4.4,0.9-5.7s1.6-2.3,2.9-3.1s2.6-1.1,3.9-1.1s2.4,0.4,3.3,1.1
		s1.5,1.7,1.8,3c0.2,0.9,0.3,3.5,0.3,7.9c0,4.1-0.1,7.1-0.3,9c-0.1,0.5-0.2,0.9-0.5,1.2c-0.3,0.2-1.6,0.7-3.9,1.4v1.7
		c3.9-0.2,6.6-0.4,8.2-0.4c1.8,0,3.9,0.1,6.3,0.4V265c-0.6-0.1-1.1-0.3-1.4-0.3c-1.6-0.4-2.6-0.7-2.8-0.9c-0.3-0.3-0.5-0.7-0.6-1.3
		c-0.2-0.9-0.3-3.8-0.3-8.6l0.1-7.3c0-3.1-0.5-5.2-1.4-6.5c-1.4-1.9-3.6-2.8-6.4-2.8c-1.3,0-2.5,0.2-3.6,0.7
		c-0.9,0.3-1.6,0.7-2.2,1.3l-3.8,3.7c0.1-1.8,0.2-3.5,0.5-5.2l-0.8-0.5c-2.9,1.7-6.2,3-9.8,3.8v1.7c0.5-0.1,0.9-0.1,1.2-0.1
		C308.6,242.4,309.3,242.4,309.7,242.4"/>
	<path class="st0" d="M353.5,267.4c1.4,0,2.7-0.2,3.6-0.6c2.1-0.9,4.7-2.5,7.9-4.9l-1.1-1.8c-3.5,1.9-6.5,2.9-9,2.9
		c-2.4,0-4.5-1.1-6.3-3.1c-1.8-2.1-2.7-5-2.7-8.7c0-2.3,0.4-4.4,1.2-6.2c0.8-1.8,1.8-3.1,3.2-3.9c1.4-0.8,2.8-1.2,4.3-1.2
		c2.1,0,3.7,0.6,4.9,1.8c1.2,1.2,1.8,3.1,1.9,5.6l2,0.2c0.4-2.2,0.8-4,1.1-5.4c0.2-1.1,0.4-2,0.6-2.6c-2.8-1.5-5.7-2.3-8.7-2.3
		c-4.4,0-8.1,1.5-11.1,4.6c-3,3.1-4.5,7-4.5,11.8c0,4.6,1.4,8.3,4.3,11C347.2,266.3,350,267.4,353.5,267.4"/>
	<path class="st0" d="M376.3,241.2c1.3-1.1,2.7-1.7,4.4-1.7c1.9,0,3.4,0.8,4.5,2.3c0.8,1,1.2,2.5,1.3,4.5c-4.3,0.4-8.1,0.6-11.4,0.6
		c-0.4,0-0.9,0-1.7,0C374.1,244.2,375,242.3,376.3,241.2 M379.6,267.4c1.4,0,2.7-0.2,3.9-0.6c0.9-0.3,1.7-0.7,2.6-1.2l6-4.4
		l-1.1-1.8c-2.1,1.4-3.9,2.3-5.3,2.8s-2.8,0.8-4.1,0.8c-2.6,0-4.6-1.1-6.2-3.4c-1.5-2.3-2.3-5.7-2.3-10.2c3.9-0.2,8.5-0.3,13.8-0.3
		c0.4,0,1.3,0,2.7,0c0.7-0.7,1.4-1.3,2.2-1.8c0-3.5-0.9-6.1-2.5-7.8c-1.7-1.7-4.1-2.5-7.2-2.5c-4,0-7.4,1.5-10.1,4.3
		c-2.8,2.9-4.1,6.7-4.1,11.5c0,4.4,1.1,8,3.5,10.6C373.6,266.1,376.4,267.4,379.6,267.4"/>
	<path class="st0" d="M404.5,250.7c0-1.9,0.4-3.5,1-4.8c0.6-1.3,1.6-2.3,2.9-3.1s2.6-1.2,4-1.2c2,0,3.7,0.8,4.9,2.4
		c1.7,2.1,2.6,5,2.6,8.7c0,3.6-0.9,6.4-2.6,8.3s-3.7,2.9-5.9,2.9c-1.2,0-2.4-0.2-3.5-0.7c-1.2-0.5-2.3-1.2-3.4-2.2V250.7z
		 M410,279.4v-1.7c-0.6-0.2-1-0.3-1.3-0.3c-2-0.5-3.1-0.8-3.4-1.1c-0.3-0.3-0.5-0.6-0.6-1.2c-0.1-0.9-0.2-4.1-0.2-9.4
		c1,0.4,1.9,0.7,2.9,1c0.9,0.2,1.7,0.3,2.5,0.3c2.3,0,4.7-0.8,7.3-2.4c2.5-1.6,4.5-3.6,5.8-6.1c1.4-2.5,2.1-5.4,2.1-8.7
		c0-4.1-1-7.2-3.1-9.5c-2-2.2-4.7-3.3-7.9-3.3c-1.5,0-2.8,0.3-3.7,0.9c-1.3,0.8-3.2,2.7-5.8,5.6c0-2.1,0.2-3.9,0.4-5.6l-1-0.6
		c-2.1,1.3-5.2,2.6-9.3,3.8v1.7c1.7-0.2,2.9-0.3,3.5-0.3c0.5,0,0.9,0.1,1.1,0.4c0.3,0.5,0.4,1.7,0.4,3.8v1l0.1,12.3
		c0,8.4,0,13,0,13.8c0,1.2-0.3,2-0.6,2.4c-0.3,0.4-1.4,0.8-3.1,1.2l-1.4,0.3v1.7c4.1-0.2,6.8-0.4,8.2-0.4
		C404.5,279.1,406.9,279.2,410,279.4"/>
	<path class="st0" d="M431.7,256.9c0,3.5,0.1,5.5,0.3,6.2c0.3,1.2,0.9,2.2,1.8,2.9s2.1,1,3.4,1c0.8,0,1.8-0.2,3-0.7
		c1.1-0.4,2.8-1.3,5-2.6l-0.9-1.7c-1.8,0.9-3.1,1.3-4.2,1.3c-1.3,0-2.2-0.5-2.7-1.6c-0.5-1.1-0.8-2.8-0.8-5.1v-0.2l0.3-15.4
		c2.4,0,4.8,0.1,7.2,0.2c0.4-1,0.9-1.9,1.4-2.7l-0.2-0.5l-8.3,0.3l0.7-7.6H436c-1.2,2.6-2.5,4.5-3.7,5.9c-1.2,1.3-2.7,2.3-4.4,3.1
		v1.7c1.5-0.1,3-0.2,4.4-0.2C431.8,247.9,431.7,253.2,431.7,256.9"/>
	<path class="st0" d="M456.1,264.6c-1.8,0-3.3-0.5-4.5-1.5s-2.1-2.8-2.7-5.1h-2c0,2.4-0.2,5-0.5,7.8c3,1.1,5.7,1.6,8.2,1.6
		c3.4,0,6.1-0.9,8.1-2.7c2-1.8,2.9-3.9,2.9-6.3c0-1.7-0.5-3.2-1.6-4.6c-1.1-1.3-3.1-2.7-6.2-4.2s-5.1-2.7-6-3.8
		c-0.7-0.8-1-1.6-1-2.5c0-1,0.5-1.9,1.3-2.6c0.8-0.8,2-1.2,3.5-1.2c1.6,0,3.1,0.5,4.2,1.6c1.1,1,1.7,2.5,1.9,4.3l2.1,0.2
		c0.3-3,0.5-5.3,0.8-6.9c-2.6-1.1-5.1-1.6-7.4-1.6c-3.3,0-5.9,0.9-7.8,2.6c-2,1.7-2.9,3.7-2.9,5.8c0,1.5,0.5,2.9,1.5,4.1
		s2.9,2.5,5.9,3.9c3,1.4,4.9,2.7,5.8,3.7c0.8,1,1.3,2.1,1.3,3.3s-0.4,2.2-1.3,3C458.9,264.2,457.7,264.6,456.1,264.6"/>
</g>
</svg>
